# Blender v3.0.0 OBJ File: ''
# www.blender.org
mtllib xyz.mtl
o normal1
v 0.050000 1.000000 0.000000
v 0.043301 1.000000 -0.025000
v 0.025000 1.000000 -0.043301
v 0.000000 1.000000 -0.050000
v -0.025000 1.000000 -0.043301
v -0.043301 1.000000 -0.025000
v -0.050000 1.000000 0.000000
v -0.043301 1.000000 0.025000
v -0.025000 1.000000 0.043301
v 0.000000 1.000000 0.050000
v 0.025000 1.000000 0.043301
v 0.043301 1.000000 0.025000
v 0.050000 0.000000 0.000000
v 0.043301 0.000000 -0.025000
v 0.025000 0.000000 -0.043301
v 0.000000 0.000000 -0.050000
v -0.025000 0.000000 -0.043301
v -0.043301 0.000000 -0.025000
v -0.050000 0.000000 0.000000
v -0.043301 -0.000000 0.025000
v -0.025000 -0.000000 0.043301
v 0.000000 -0.000000 0.050000
v 0.025000 -0.000000 0.043301
v 0.043301 -0.000000 0.025000
v 0.005100 1.450000 0.000000
v 0.004417 1.450000 -0.002550
v 0.002550 1.450000 -0.004416
v 0.000000 1.450000 -0.005100
v -0.002550 1.450000 -0.004416
v -0.004417 1.450000 -0.002550
v -0.005100 1.450000 0.000000
v -0.004417 1.450000 0.002550
v -0.002550 1.450000 0.004417
v 0.000000 1.450000 0.005100
v 0.002550 1.450000 0.004417
v 0.004417 1.450000 0.002550
v 0.130000 0.950000 0.000000
v 0.112583 0.950000 -0.065000
v 0.065000 0.950000 -0.112583
v 0.000000 0.950000 -0.130000
v -0.065000 0.950000 -0.112583
v -0.112583 0.950000 -0.065000
v -0.130000 0.950000 0.000000
v -0.112583 0.950000 0.065000
v -0.065000 0.950000 0.112583
v 0.000000 0.950000 0.130000
v 0.065000 0.950000 0.112583
v 0.112583 0.950000 0.065000
v 0.050000 -0.000000 1.000000
v 0.043301 0.025000 1.000000
v 0.025000 0.043301 1.000000
v 0.000000 0.050000 1.000000
v -0.025000 0.043301 1.000000
v -0.043301 0.025000 1.000000
v -0.050000 -0.000000 1.000000
v -0.043301 -0.025000 1.000000
v -0.025000 -0.043301 1.000000
v 0.000000 -0.050000 1.000000
v 0.025000 -0.043301 1.000000
v 0.043301 -0.025000 1.000000
v 0.050000 0.000000 0.000000
v 0.043301 0.025000 0.000000
v 0.025000 0.043301 0.000000
v 0.000000 0.050000 0.000000
v -0.025000 0.043301 0.000000
v -0.043301 0.025000 0.000000
v -0.050000 0.000000 0.000000
v -0.043301 -0.025000 -0.000000
v -0.025000 -0.043301 -0.000000
v 0.000000 -0.050000 -0.000000
v 0.025000 -0.043301 -0.000000
v 0.043301 -0.025000 -0.000000
v 0.005100 -0.000000 1.450000
v 0.004417 0.002550 1.450000
v 0.002550 0.004416 1.450000
v 0.000000 0.005100 1.450000
v -0.002550 0.004416 1.450000
v -0.004417 0.002550 1.450000
v -0.005100 -0.000000 1.450000
v -0.004417 -0.002550 1.450000
v -0.002550 -0.004417 1.450000
v 0.000000 -0.005100 1.450000
v 0.002550 -0.004417 1.450000
v 0.004417 -0.002550 1.450000
v 0.130000 -0.000000 0.950000
v 0.112583 0.065000 0.950000
v 0.065000 0.112583 0.950000
v 0.000000 0.130000 0.950000
v -0.065000 0.112583 0.950000
v -0.112583 0.065000 0.950000
v -0.130000 -0.000000 0.950000
v -0.112583 -0.065000 0.950000
v -0.065000 -0.112583 0.950000
v 0.000000 -0.130000 0.950000
v 0.065000 -0.112583 0.950000
v 0.112583 -0.065000 0.950000
v 1.000000 -0.050000 -0.000000
v 1.000000 -0.043301 -0.025000
v 1.000000 -0.025000 -0.043301
v 1.000000 0.000000 -0.050000
v 1.000000 0.025000 -0.043301
v 1.000000 0.043301 -0.025000
v 1.000000 0.050000 0.000000
v 1.000000 0.043301 0.025000
v 1.000000 0.025000 0.043301
v 1.000000 -0.000000 0.050000
v 1.000000 -0.025000 0.043301
v 1.000000 -0.043301 0.025000
v 0.000000 -0.050000 -0.000000
v 0.000000 -0.043301 -0.025000
v 0.000000 -0.025000 -0.043301
v 0.000000 0.000000 -0.050000
v 0.000000 0.025000 -0.043301
v 0.000000 0.043301 -0.025000
v 0.000000 0.050000 0.000000
v 0.000000 0.043301 0.025000
v 0.000000 0.025000 0.043301
v 0.000000 -0.000000 0.050000
v 0.000000 -0.025000 0.043301
v 0.000000 -0.043301 0.025000
v 1.450000 -0.005100 -0.000000
v 1.450000 -0.004417 -0.002550
v 1.450000 -0.002550 -0.004417
v 1.450000 0.000000 -0.005100
v 1.450000 0.002550 -0.004417
v 1.450000 0.004417 -0.002550
v 1.450000 0.005100 0.000000
v 1.450000 0.004417 0.002550
v 1.450000 0.002550 0.004417
v 1.450000 -0.000000 0.005100
v 1.450000 -0.002550 0.004417
v 1.450000 -0.004417 0.002550
v 0.950000 -0.130000 -0.000000
v 0.950000 -0.112583 -0.065000
v 0.950000 -0.065000 -0.112583
v 0.950000 0.000000 -0.130000
v 0.950000 0.065000 -0.112583
v 0.950000 0.112583 -0.065000
v 0.950000 0.130000 0.000000
v 0.950000 0.112583 0.065000
v 0.950000 0.065000 0.112583
v 0.950000 -0.000000 0.130000
v 0.950000 -0.065000 0.112583
v 0.950000 -0.112583 0.065000
vt 0.722463 0.102181
vt 0.730893 0.116782
vt 0.730893 0.133643
vt 0.722462 0.148244
vt 0.707861 0.156674
vt 0.691000 0.156674
vt 0.676399 0.148243
vt 0.667969 0.133642
vt 0.667969 0.116781
vt 0.676399 0.102180
vt 0.691001 0.093750
vt 0.707861 0.093750
vt 0.899267 0.652768
vt 0.882407 0.652768
vt 0.867805 0.644337
vt 0.859375 0.629736
vt 0.859375 0.612875
vt 0.867806 0.598274
vt 0.882407 0.589844
vt 0.899268 0.589844
vt 0.913869 0.598274
vt 0.922299 0.612876
vt 0.922299 0.629736
vt 0.913869 0.644338
vt 0.000000 0.312500
vt 0.651440 0.312500
vt 0.651440 0.328786
vt 0.000000 0.328786
vt 0.651440 0.261922
vt 0.000000 0.261922
vt 0.000000 0.250000
vt 0.651440 0.250000
vt 0.651440 0.278208
vt 0.000000 0.278208
vt 0.651440 0.294494
vt 0.000000 0.294494
vt 0.651440 0.306416
vt 0.000000 0.306416
vt 0.651440 0.430349
vt 0.000000 0.430349
vt 0.000000 0.414062
vt 0.651440 0.414062
vt 0.651440 0.446635
vt 0.000000 0.446635
vt 0.651440 0.375203
vt 0.000000 0.375203
vt 0.000000 0.363281
vt 0.651440 0.363281
vt 0.651440 0.391489
vt 0.000000 0.391489
vt 0.651440 0.407775
vt 0.000000 0.407775
vt 0.000000 0.345072
vt 0.651440 0.345072
vt 0.651440 0.356994
vt 0.000000 0.356994
vt 0.673528 0.091496
vt 0.672038 0.092355
vt 0.670318 0.092356
vt 0.668829 0.091496
vt 0.667969 0.090007
vt 0.667969 0.088287
vt 0.668828 0.086798
vt 0.670318 0.085938
vt 0.672038 0.085938
vt 0.673527 0.086797
vt 0.674387 0.088287
vt 0.674387 0.090006
vt 0.127157 0.976103
vt 0.083320 0.976103
vt 0.045356 0.954184
vt 0.023438 0.916220
vt 0.023438 0.872383
vt 0.045356 0.834419
vt 0.083320 0.812500
vt 0.127158 0.812500
vt 0.165122 0.834419
vt 0.187040 0.872383
vt 0.187040 0.916220
vt 0.165121 0.954184
vt 0.314548 0.609375
vt 0.637742 0.666768
vt 0.637657 0.668427
vt 0.312369 0.651662
vt 0.981970 0.030997
vt 0.656250 0.071680
vt 0.656250 0.070464
vt 0.981970 0.000000
vt 0.981970 0.073341
vt 0.656250 0.073341
vt 0.981970 0.115685
vt 0.656250 0.075002
vt 0.981970 0.146682
vt 0.656250 0.076218
vt 0.384314 0.796250
vt 0.058594 0.796250
vt 0.058594 0.794589
vt 0.384314 0.753906
vt 0.384314 0.838593
vt 0.058594 0.797911
vt 0.667397 0.706738
vt 0.340015 0.730601
vt 0.340077 0.729387
vt 0.668992 0.675781
vt 0.665217 0.749025
vt 0.339929 0.732260
vt 0.663038 0.791313
vt 0.339844 0.733919
vt 0.310189 0.693950
vt 0.637571 0.670086
vt 0.637509 0.671301
vt 0.308594 0.724906
vt 0.796681 0.316213
vt 0.782080 0.324643
vt 0.765219 0.324643
vt 0.750618 0.316212
vt 0.742188 0.301611
vt 0.742188 0.284750
vt 0.750618 0.270149
vt 0.765219 0.261719
vt 0.782080 0.261719
vt 0.796682 0.270149
vt 0.805111 0.284751
vt 0.805111 0.301611
vt 0.761313 0.109375
vt 0.778174 0.109375
vt 0.792775 0.117805
vt 0.801205 0.132407
vt 0.801205 0.149268
vt 0.792775 0.163869
vt 0.778173 0.172299
vt 0.761313 0.172299
vt 0.746711 0.163869
vt 0.738281 0.149267
vt 0.738281 0.132407
vt 0.746712 0.117805
vt 0.000000 0.011922
vt 0.651440 0.011922
vt 0.651440 0.028208
vt 0.000000 0.028208
vt 0.000000 0.000000
vt 0.651440 0.000000
vt 0.651440 0.469411
vt 0.000000 0.469411
vt 0.000000 0.453125
vt 0.651440 0.453125
vt 0.651440 0.485697
vt 0.000000 0.485697
vt 0.651440 0.074422
vt 0.000000 0.074422
vt 0.000000 0.062500
vt 0.651440 0.062500
vt 0.651440 0.090708
vt 0.000000 0.090708
vt 0.651440 0.106994
vt 0.000000 0.106994
vt 0.651440 0.118916
vt 0.000000 0.118916
vt 0.651440 0.508473
vt 0.000000 0.508473
vt 0.000000 0.492188
vt 0.651440 0.492188
vt 0.651440 0.524759
vt 0.000000 0.524759
vt 0.000000 0.044494
vt 0.651440 0.044494
vt 0.651440 0.056416
vt 0.000000 0.056416
vt 0.677434 0.243840
vt 0.675945 0.244699
vt 0.674225 0.244700
vt 0.672735 0.243839
vt 0.671875 0.242351
vt 0.671875 0.240631
vt 0.672735 0.239141
vt 0.674224 0.238281
vt 0.675944 0.238281
vt 0.677433 0.239141
vt 0.678293 0.240630
vt 0.678293 0.242350
vt 0.398438 0.873251
vt 0.398438 0.829414
vt 0.420356 0.791450
vt 0.458320 0.769531
vt 0.502158 0.769531
vt 0.540122 0.791450
vt 0.562040 0.829414
vt 0.562040 0.873252
vt 0.540122 0.911216
vt 0.502158 0.933134
vt 0.458320 0.933134
vt 0.420356 0.911215
vt 0.009861 0.679688
vt 0.333055 0.737081
vt 0.332969 0.738740
vt 0.007681 0.721975
vt 0.989782 0.335685
vt 0.664062 0.376367
vt 0.664062 0.375151
vt 0.989782 0.304688
vt 0.989782 0.378029
vt 0.664062 0.378029
vt 0.989782 0.420372
vt 0.664062 0.379690
vt 0.989782 0.451370
vt 0.664062 0.380906
vt 0.997595 0.725937
vt 0.671875 0.725937
vt 0.671875 0.724276
vt 0.997595 0.683594
vt 0.997595 0.768281
vt 0.671875 0.727598
vt 0.847084 0.609081
vt 0.519702 0.632945
vt 0.519765 0.631730
vt 0.848680 0.578125
vt 0.844905 0.651369
vt 0.519617 0.634604
vt 0.842725 0.693656
vt 0.519531 0.636263
vt 0.005502 0.764262
vt 0.332884 0.740399
vt 0.332821 0.741613
vt 0.003906 0.795219
vt 0.680306 0.254524
vt 0.694907 0.246094
vt 0.711768 0.246094
vt 0.726369 0.254524
vt 0.734799 0.269126
vt 0.734799 0.285986
vt 0.726369 0.300588
vt 0.711767 0.309018
vt 0.694907 0.309018
vt 0.680305 0.300587
vt 0.671875 0.285986
vt 0.671875 0.269125
vt 0.992612 0.628501
vt 0.992612 0.645361
vt 0.984181 0.659963
vt 0.969580 0.668393
vt 0.952719 0.668393
vt 0.938118 0.659962
vt 0.929688 0.645361
vt 0.929688 0.628500
vt 0.938118 0.613899
vt 0.952720 0.605469
vt 0.969580 0.605469
vt 0.984182 0.613899
vt 0.000000 0.531250
vt 0.651440 0.531250
vt 0.651440 0.547536
vt 0.000000 0.547536
vt 0.651440 0.136922
vt 0.000000 0.136922
vt 0.000000 0.125000
vt 0.651440 0.125000
vt 0.651440 0.153208
vt 0.000000 0.153208
vt 0.651440 0.169494
vt 0.000000 0.169494
vt 0.651440 0.181416
vt 0.000000 0.181416
vt 0.651440 0.586598
vt 0.000000 0.586598
vt 0.000000 0.570312
vt 0.651440 0.570312
vt 0.651440 0.602884
vt 0.000000 0.602884
vt 0.651440 0.199422
vt 0.000000 0.199422
vt 0.000000 0.187500
vt 0.651440 0.187500
vt 0.651440 0.215708
vt 0.000000 0.215708
vt 0.651440 0.231994
vt 0.000000 0.231994
vt 0.651440 0.243916
vt 0.000000 0.243916
vt 0.651440 0.563822
vt 0.000000 0.563822
vt 0.864933 0.582891
vt 0.865793 0.584380
vt 0.865793 0.586100
vt 0.864934 0.587590
vt 0.863444 0.588450
vt 0.861725 0.588450
vt 0.860235 0.587590
vt 0.859375 0.586101
vt 0.859375 0.584381
vt 0.860235 0.582891
vt 0.861724 0.582031
vt 0.863444 0.582031
vt 0.374540 0.895820
vt 0.374540 0.939658
vt 0.352621 0.977622
vt 0.314657 0.999540
vt 0.270820 0.999540
vt 0.232856 0.977621
vt 0.210938 0.939658
vt 0.210938 0.895820
vt 0.232856 0.857856
vt 0.270820 0.835938
vt 0.314658 0.835938
vt 0.352622 0.857856
vt 0.671875 0.738281
vt 0.997595 0.778964
vt 0.997595 0.780625
vt 0.671875 0.780625
vt 0.985876 0.183341
vt 0.660156 0.224024
vt 0.660156 0.222807
vt 0.985876 0.152344
vt 0.985876 0.225685
vt 0.660156 0.225685
vt 0.985876 0.268028
vt 0.660156 0.227346
vt 0.985876 0.299026
vt 0.660156 0.228562
vt 0.981970 0.835312
vt 0.656250 0.835312
vt 0.656250 0.833651
vt 0.981970 0.792969
vt 0.981970 0.877656
vt 0.656250 0.836973
vt 0.993689 0.488029
vt 0.667969 0.528711
vt 0.667969 0.527495
vt 0.993689 0.457031
vt 0.993689 0.530372
vt 0.667969 0.530372
vt 0.993689 0.572716
vt 0.667969 0.532033
vt 0.993689 0.603713
vt 0.667969 0.533250
vt 0.997595 0.782286
vt 0.671875 0.822968
vn 0.0000 1.0000 0.0000
vn 0.0000 -1.0000 -0.0000
vn 0.8660 0.0000 -0.5000
vn 1.0000 0.0000 0.0000
vn 0.5000 0.0000 -0.8660
vn 0.0000 0.0000 -1.0000
vn -0.5000 0.0000 -0.8660
vn -0.8660 0.0000 -0.5000
vn -1.0000 -0.0000 0.0000
vn -0.8660 -0.0000 0.5000
vn -0.5000 -0.0000 0.8660
vn 0.0000 -0.0000 1.0000
vn 0.5000 -0.0000 0.8660
vn 0.8660 -0.0000 0.5000
vn 0.8402 0.2424 -0.4851
vn 0.9702 0.2424 0.0000
vn 0.4851 0.2424 -0.8402
vn 0.0000 0.2424 -0.9702
vn -0.4851 0.2424 -0.8402
vn -0.8402 0.2424 -0.4851
vn -0.9702 0.2424 -0.0000
vn -0.8402 0.2424 0.4851
vn -0.4851 0.2424 0.8402
vn 0.0000 0.2424 0.9702
vn 0.4851 0.2424 0.8402
vn 0.8402 0.2424 0.4851
vn 0.8660 0.5000 0.0000
vn 0.5000 0.8660 0.0000
vn -0.5000 0.8660 0.0000
vn -0.8660 0.5000 0.0000
vn -0.8660 -0.5000 -0.0000
vn -0.5000 -0.8660 -0.0000
vn 0.5000 -0.8660 -0.0000
vn 0.8660 -0.5000 -0.0000
vn 0.8402 0.4851 0.2424
vn 0.9702 0.0000 0.2424
vn 0.4851 0.8402 0.2424
vn 0.0000 0.9702 0.2424
vn -0.4851 0.8402 0.2424
vn -0.8402 0.4851 0.2424
vn -0.9702 0.0000 0.2424
vn -0.8402 -0.4851 0.2424
vn -0.4851 -0.8402 0.2424
vn -0.0000 -0.9702 0.2424
vn 0.4851 -0.8402 0.2424
vn 0.8402 -0.4851 0.2424
vn 0.0000 -0.8660 -0.5000
vn 0.0000 -0.5000 -0.8660
vn 0.0000 0.5000 -0.8660
vn 0.0000 0.8660 -0.5000
vn 0.0000 0.8660 0.5000
vn 0.0000 0.5000 0.8660
vn 0.0000 -0.5000 0.8660
vn 0.0000 -0.8660 0.5000
vn 0.2424 -0.8402 -0.4851
vn 0.2424 -0.9702 -0.0000
vn 0.2424 -0.4851 -0.8402
vn 0.2424 0.0000 -0.9702
vn 0.2424 0.4851 -0.8402
vn 0.2424 0.8402 -0.4851
vn 0.2424 0.9702 0.0000
vn 0.2424 0.8402 0.4851
vn 0.2424 0.4851 0.8402
vn 0.2424 -0.0000 0.9702
vn 0.2424 -0.4851 0.8402
vn 0.2424 -0.8402 0.4851
usemtl /mat/Material.001
s 1
f 2/1/1 3/2/1 4/3/1 5/4/1 6/5/1 7/6/1 8/7/1 9/8/1 10/9/1 11/10/1 12/11/1 1/12/1
f 23/13/2 22/14/2 21/15/2 20/16/2 19/17/2 18/18/2 17/19/2 16/20/2 15/21/2 14/22/2 13/23/2 24/24/2
f 14/25/3 2/26/3 1/27/4 13/28/4
f 15/29/5 3/30/5 2/31/3 14/32/3
f 16/33/6 4/34/6 3/30/5 15/29/5
f 17/35/7 5/36/7 4/34/6 16/33/6
f 18/37/8 6/38/8 5/36/7 17/35/7
f 19/39/9 7/40/9 6/41/8 18/42/8
f 20/43/10 8/44/10 7/40/9 19/39/9
f 21/45/11 9/46/11 8/47/10 20/48/10
f 22/49/12 10/50/12 9/46/11 21/45/11
f 23/51/13 11/52/13 10/50/12 22/49/12
f 24/53/14 12/54/14 11/55/13 23/56/13
f 13/28/4 1/27/4 12/54/14 24/53/14
f 26/57/1 27/58/1 28/59/1 29/60/1 30/61/1 31/62/1 32/63/1 33/64/1 34/65/1 35/66/1 36/67/1 25/68/1
f 47/69/2 46/70/2 45/71/2 44/72/2 43/73/2 42/74/2 41/75/2 40/76/2 39/77/2 38/78/2 37/79/2 48/80/2
f 38/81/15 26/82/15 25/83/16 37/84/16
f 39/85/17 27/86/17 26/87/15 38/88/15
f 40/89/18 28/90/18 27/86/17 39/85/17
f 41/91/19 29/92/19 28/90/18 40/89/18
f 42/93/20 30/94/20 29/92/19 41/91/19
f 43/95/21 31/96/21 30/97/20 42/98/20
f 44/99/22 32/100/22 31/96/21 43/95/21
f 45/101/23 33/102/23 32/103/22 44/104/22
f 46/105/24 34/106/24 33/102/23 45/101/23
f 47/107/25 35/108/25 34/106/24 46/105/24
f 48/109/26 36/110/26 35/111/25 47/112/25
f 37/84/16 25/83/16 36/110/26 48/109/26
f 50/113/12 51/114/12 52/115/12 53/116/12 54/117/12 55/118/12 56/119/12 57/120/12 58/121/12 59/122/12 60/123/12 49/124/12
f 71/125/6 70/126/6 69/127/6 68/128/6 67/129/6 66/130/6 65/131/6 64/132/6 63/133/6 62/134/6 61/135/6 72/136/6
f 62/137/27 50/138/27 49/139/4 61/140/4
f 63/141/28 51/142/28 50/138/27 62/137/27
f 64/143/1 52/144/1 51/145/28 63/146/28
f 65/147/29 53/148/29 52/144/1 64/143/1
f 66/149/30 54/150/30 53/151/29 65/152/29
f 67/153/9 55/154/9 54/150/30 66/149/30
f 68/155/31 56/156/31 55/154/9 67/153/9
f 69/157/32 57/158/32 56/156/31 68/155/31
f 70/159/2 58/160/2 57/161/32 69/162/32
f 71/163/33 59/164/33 58/160/2 70/159/2
f 72/165/34 60/166/34 59/167/33 71/168/33
f 61/140/4 49/139/4 60/166/34 72/165/34
f 74/169/12 75/170/12 76/171/12 77/172/12 78/173/12 79/174/12 80/175/12 81/176/12 82/177/12 83/178/12 84/179/12 73/180/12
f 95/181/6 94/182/6 93/183/6 92/184/6 91/185/6 90/186/6 89/187/6 88/188/6 87/189/6 86/190/6 85/191/6 96/192/6
f 86/193/35 74/194/35 73/195/36 85/196/36
f 87/197/37 75/198/37 74/199/35 86/200/35
f 88/201/38 76/202/38 75/198/37 87/197/37
f 89/203/39 77/204/39 76/202/38 88/201/38
f 90/205/40 78/206/40 77/204/39 89/203/39
f 91/207/41 79/208/41 78/209/40 90/210/40
f 92/211/42 80/212/42 79/208/41 91/207/41
f 93/213/43 81/214/43 80/215/42 92/216/42
f 94/217/44 82/218/44 81/214/43 93/213/43
f 95/219/45 83/220/45 82/218/44 94/217/44
f 96/221/46 84/222/46 83/223/45 95/224/45
f 85/196/36 73/195/36 84/222/46 96/221/46
f 98/225/4 99/226/4 100/227/4 101/228/4 102/229/4 103/230/4 104/231/4 105/232/4 106/233/4 107/234/4 108/235/4 97/236/4
f 119/237/9 118/238/9 117/239/9 116/240/9 115/241/9 114/242/9 113/243/9 112/244/9 111/245/9 110/246/9 109/247/9 120/248/9
f 110/249/47 98/250/47 97/251/2 109/252/2
f 111/253/48 99/254/48 98/255/47 110/256/47
f 112/257/6 100/258/6 99/254/48 111/253/48
f 113/259/49 101/260/49 100/258/6 112/257/6
f 114/261/50 102/262/50 101/260/49 113/259/49
f 115/263/1 103/264/1 102/265/50 114/266/50
f 116/267/51 104/268/51 103/264/1 115/263/1
f 117/269/52 105/270/52 104/271/51 116/272/51
f 118/273/12 106/274/12 105/270/52 117/269/52
f 119/275/53 107/276/53 106/274/12 118/273/12
f 120/277/54 108/278/54 107/276/53 119/275/53
f 109/252/2 97/251/2 108/279/54 120/280/54
f 122/281/4 123/282/4 124/283/4 125/284/4 126/285/4 127/286/4 128/287/4 129/288/4 130/289/4 131/290/4 132/291/4 121/292/4
f 143/293/9 142/294/9 141/295/9 140/296/9 139/297/9 138/298/9 137/299/9 136/300/9 135/301/9 134/302/9 133/303/9 144/304/9
f 134/305/55 122/306/55 121/307/56 133/308/56
f 135/309/57 123/310/57 122/311/55 134/312/55
f 136/313/58 124/314/58 123/310/57 135/309/57
f 137/315/59 125/316/59 124/314/58 136/313/58
f 138/317/60 126/318/60 125/316/59 137/315/59
f 139/319/61 127/320/61 126/321/60 138/322/60
f 140/323/62 128/324/62 127/320/61 139/319/61
f 141/325/63 129/326/63 128/327/62 140/328/62
f 142/329/64 130/330/64 129/326/63 141/325/63
f 143/331/65 131/332/65 130/330/64 142/329/64
f 144/333/66 132/334/66 131/332/65 143/331/65
f 133/308/56 121/307/56 132/335/66 144/336/66
